PathFileType	4	(X/Y/Z)	C:\Users\dbl\Desktop\LZH\BX\Trimmed_bx_n_10_901.trc
DataRate	CameraRate	NumFrames	NumMarkers	Units	OrigDataRate	OrigDataStartFrame	OrigNumFrames
50.00	50.00	      8	43	mm	50.00	190	      1518
Frame#	Time	Top.Head			R.Acromium			L.Acromium			Sternum			R.ASIS			L.ASIS			V.Sacral			R.Thigh.Upper			R.Thigh.Front			R.Thigh.Rear			R.Knee.Lat			R.Knee.Med			R.Shank.Upper			R.Shank.Front			R.Shank.Rear			R.Ankle.Lat			R.Midfoot.Lat			R.Toe.Lat			R.Toe.Tip			R.Toe.Med			R.Ankle.Med			R.Midfoot.Sup			R.Heel			L.Thigh.Upper			L.Thigh.Front			L.Thigh.Rear			L.Knee.Lat			L.Knee.Med			L.Shank.Upper			L.Shank.Front			L.Shank.Rear			L.Ankle.Lat			L.Midfoot.Lat			L.Toe.Lat			L.Toe.Tip			L.Toe.Med			L.Ankle.Med			L.Midfoot.Sup			L.Heel			origin1 front left			origin2 front right			origin 3 back right			origin 4 back leftt			
		X1	Y1	Z1	X2	Y2	Z2	X3	Y3	Z3	X4	Y4	Z4	X5	Y5	Z5	X6	Y6	Z6	X7	Y7	Z7	X8	Y8	Z8	X9	Y9	Z9	X10	Y10	Z10	X11	Y11	Z11	X12	Y12	Z12	X13	Y13	Z13	X14	Y14	Z14	X15	Y15	Z15	X16	Y16	Z16	X17	Y17	Z17	X18	Y18	Z18	X19	Y19	Z19	X20	Y20	Z20	X21	Y21	Z21	X22	Y22	Z22	X23	Y23	Z23	X24	Y24	Z24	X25	Y25	Z25	X26	Y26	Z26	X27	Y27	Z27	X28	Y28	Z28	X29	Y29	Z29	X30	Y30	Z30	X31	Y31	Z31	X32	Y32	Z32	X33	Y33	Z33	X34	Y34	Z34	X35	Y35	Z35	X36	Y36	Z36	X37	Y37	Z37	X38	Y38	Z38	X39	Y39	Z39	X40	Y40	Z40	X41	Y41	Z41	X42	Y42	Z42	X43	Y43	Z43	

190	3.780	-341.36996	246.48363	1626.24243	-420.14862	77.26785	1360.01758	-401.38135	418.74539	1356.64429	-504.17282	251.93489	1180.20630	-694.64203	129.64926	1003.55994	-675.22211	356.43588	1006.44037	-880.00110	251.47818	1072.04346	-765.66553	80.90822	825.17969	-673.60791	141.82697	808.53833	-764.52173	95.43597	708.76453	-752.18005	116.94174	595.19446	-724.57208	224.06105	556.27661	-767.55847	115.64321	527.83563	-689.19934	167.16043	527.91956	-764.70660	107.26042	475.77911	-694.83746	141.03481	209.97449	-608.78009	88.17549	162.53012	-560.59460	69.24834	160.18869	-482.72714	119.69241	156.91945	-532.33746	166.42320	165.47844	-651.01923	219.95020	225.22652	-599.77216	199.02838	175.94223	-727.02386	206.89456	167.97778	-761.26062	439.21063	847.11652	-672.99719	388.08511	815.95239	-760.51959	432.09973	729.80524	-747.12317	412.91455	594.97327	-719.29736	311.47580	562.35870	-753.39050	416.76694	548.93469	-692.37677	360.06650	535.62787	-791.06390	421.87320	475.97101	-679.28491	416.46732	213.16345	-572.97229	457.56653	163.42990	-534.21826	467.27902	156.56154	-473.87567	413.60284	163.87279	-521.20526	376.92633	176.97295	-648.48480	324.83267	211.42412	-592.20599	340.12332	173.31763	-729.34601	345.80792	161.27109	-444.05133	448.57846	146.68001	-450.33191	75.02961	143.16971	-806.43781	82.64357	141.94817	-798.90454	457.41550	144.93141	
191	3.800	-356.52335	245.96895	1640.84192	-428.84341	76.63596	1371.97534	-409.43225	419.37750	1369.37354	-504.66684	251.73802	1188.90527	-691.12952	129.69540	1005.55670	-672.07343	356.47217	1008.70490	-877.61029	251.33992	1071.59338	-762.11035	80.90308	825.83954	-670.12323	141.63214	809.08319	-761.64929	95.53674	709.46448	-750.02283	116.86358	595.65796	-722.38745	224.12204	556.79456	-765.87805	115.71376	528.23926	-687.31738	166.94145	528.05402	-763.29236	107.35976	476.18314	-694.80988	141.04259	210.00613	-608.82654	88.12870	162.52603	-560.64178	69.22192	160.18169	-482.79840	119.62642	157.01152	-532.37305	166.22331	165.65634	-650.78052	219.92389	225.18292	-599.86444	199.07535	175.94272	-727.02887	206.96791	167.93802	-758.13025	438.93399	847.61230	-669.77234	388.43491	816.38812	-757.92676	431.74692	730.41602	-745.04724	412.73874	595.50983	-717.18079	311.32968	562.74927	-751.57977	416.65784	549.45831	-690.54895	360.07025	535.89313	-789.58765	421.56168	476.62433	-679.18604	416.37054	213.25716	-573.16919	457.68451	163.38129	-534.26434	467.22986	156.60709	-473.93124	413.65189	163.91568	-521.27295	377.02087	177.00032	-648.30133	324.80246	211.51483	-592.19769	340.08719	173.36403	-729.36829	345.73328	161.18719	-444.02130	448.63828	146.62444	-450.34167	74.98076	143.19624	-806.42767	82.63490	141.97638	-798.93451	457.42902	144.89948	
192	3.820	-371.75543	245.51196	1654.80676	-437.57425	76.04864	1383.57593	-417.68747	419.94907	1381.62354	-505.31412	251.55014	1197.71411	-687.54639	129.75745	1007.47974	-668.74054	356.47708	1010.99060	-875.04175	251.21254	1071.16052	-758.49323	80.96078	826.50732	-666.58478	141.43958	809.60663	-758.71295	95.70474	710.16229	-747.83960	116.84293	596.11072	-720.13696	224.20430	557.25568	-764.15253	115.83538	528.64905	-685.39697	166.77316	528.17712	-761.84399	107.51164	476.63962	-694.76904	141.06242	210.03877	-608.89624	88.09104	162.52115	-560.68317	69.20506	160.19498	-482.85428	119.56236	157.08243	-532.40887	166.04933	165.81190	-650.57916	219.91054	225.14059	-600.03302	199.07458	175.83847	-727.02356	207.05565	167.91298	-754.80646	438.70380	848.19183	-666.35425	388.68970	816.76172	-755.14368	431.42188	731.07410	-742.83386	412.59641	596.07819	-714.98364	311.21539	563.13330	-749.60278	416.56177	549.96588	-688.62030	360.05490	536.11749	-787.98590	421.32144	477.32568	-679.05139	416.30548	213.35985	-573.35175	457.77936	163.31804	-534.29022	467.19290	156.64626	-473.94708	413.68076	163.94232	-521.30145	377.07715	177.06419	-648.05969	324.77048	211.56648	-592.20551	340.12155	173.33322	-729.38391	345.68829	161.13388	-443.99048	448.69073	146.57204	-450.34885	74.93013	143.22412	-806.42914	82.63186	142.00365	-798.93524	457.44470	144.88710	
193	3.840	-387.02899	245.12019	1668.13000	-446.31012	75.52711	1394.73315	-426.08975	420.46460	1393.39929	-506.20636	251.39290	1206.55371	-683.93750	129.83060	1009.35608	-665.25702	356.46011	1013.29089	-872.31787	251.09697	1070.73657	-754.82446	81.08063	827.17261	-662.98492	141.23959	810.08618	-755.73785	95.91887	710.86218	-745.64227	116.85799	596.57391	-717.82446	224.29326	557.64172	-762.38373	116.00253	529.08850	-683.44696	166.65880	528.25964	-760.36230	107.69872	477.14737	-694.72321	141.09738	210.06079	-608.99207	88.05957	162.51225	-560.72565	69.19258	160.22469	-482.89258	119.49887	157.13185	-532.44855	165.90335	165.94646	-650.41602	219.88823	225.08817	-600.24524	199.01569	175.66231	-727.01068	207.14383	167.90395	-751.30328	438.52493	848.81903	-662.77435	388.83261	817.07819	-752.18713	431.11438	731.77655	-740.52246	412.49564	596.66730	-712.72021	311.14517	563.52228	-747.48932	416.47458	550.46619	-686.59656	360.03549	536.33936	-786.29950	421.13361	478.07190	-678.89630	416.26779	213.44586	-573.47913	457.83795	163.27370	-534.30719	467.16446	156.67242	-473.93738	413.69315	163.95142	-521.30066	377.10776	177.17242	-647.78278	324.73605	211.56371	-592.27435	340.27521	173.19580	-729.41699	345.67700	161.09616	-443.96512	448.72583	146.53612	-450.35049	74.89360	143.25269	-806.44135	82.63283	142.02586	-798.91321	457.46014	144.89438	
194	3.860	-402.29871	244.79361	1680.81946	-455.02631	75.08461	1405.37793	-434.57434	420.92502	1404.70618	-507.40335	251.28201	1215.32837	-680.33252	129.90327	1011.20874	-661.66150	356.42902	1015.58075	-869.47809	251.01421	1070.31433	-751.12854	81.24049	827.82086	-659.33398	141.03212	810.50354	-752.75726	96.14043	711.56287	-743.43524	116.88856	597.06091	-715.45306	224.37096	557.94122	-760.57336	116.20737	529.56989	-681.46686	166.59810	528.27600	-758.84485	107.90094	477.69315	-694.67908	141.14986	210.06917	-609.10309	88.02898	162.49712	-560.77167	69.18211	160.26244	-482.91495	119.43408	157.16612	-532.48932	165.77971	166.06403	-650.27802	219.84219	225.01736	-600.45178	198.90750	175.46817	-726.99249	207.22145	167.91248	-747.65186	438.39102	849.45990	-659.07562	388.86459	817.34229	-749.08972	430.81281	732.50055	-738.14459	412.42667	597.26221	-710.39435	311.10742	563.93091	-745.28809	416.38815	550.97131	-684.48914	360.01215	536.59021	-784.57031	420.95337	478.84424	-678.72766	416.23016	213.49300	-573.54370	457.86176	163.26791	-534.32904	467.13629	156.69167	-473.91980	413.69778	163.94792	-521.28119	377.12189	177.31393	-647.50220	324.69257	211.51624	-592.44391	340.56976	172.94119	-729.48126	345.69302	161.05688	-443.94922	448.73846	146.52603	-450.34409	74.88325	143.27893	-806.45953	82.63760	142.03708	-798.87939	457.47372	144.91444	
195	3.880	-417.50555	244.53180	1692.89038	-463.71463	74.71553	1415.48389	-443.07785	421.32489	1415.54492	-508.91028	251.22360	1223.94336	-676.73950	129.96814	1013.04626	-657.98657	356.39893	1017.83099	-866.56445	250.98659	1069.88611	-747.43127	81.40650	828.44092	-655.64899	140.81824	810.84723	-749.79340	96.33989	712.25800	-741.20789	116.92747	597.56641	-713.02527	224.42680	558.15948	-758.71027	116.43747	530.09125	-679.44513	166.59377	528.21674	-757.28210	108.10217	478.25803	-694.63324	141.21977	210.07195	-609.20776	87.99516	162.47496	-560.81622	69.17464	160.29724	-482.91959	119.36857	157.18869	-532.52332	165.67093	166.16689	-650.13568	219.77760	224.92560	-600.59869	198.77831	175.30791	-726.96643	207.28502	167.93669	-743.89313	438.29074	850.09308	-655.30347	388.80072	817.55292	-745.88983	430.50858	733.21503	-735.71301	412.36569	597.84534	-707.99890	311.07077	564.37042	-743.04840	416.29639	551.48462	-682.31372	359.97729	536.88129	-782.82092	420.73978	479.61685	-678.54016	416.15439	213.49063	-573.56396	457.86115	163.30199	-534.36340	467.10706	156.72253	-473.90515	413.70313	163.93869	-521.24854	377.12430	177.46379	-647.25006	324.63248	211.44646	-592.72076	340.98090	172.58768	-729.57025	345.71927	161.00597	-443.94199	448.72845	146.53951	-450.32834	74.90101	143.29858	-806.47778	82.64889	142.03082	-798.84418	457.48560	144.93710	
196	3.900	-432.57767	244.33401	1704.35522	-472.39197	74.39610	1425.07214	-451.54755	421.65543	1425.91235	-510.68033	251.21413	1232.32153	-673.15033	130.02901	1014.86450	-654.25769	356.39096	1020.01776	-863.60443	251.01352	1069.44080	-743.74414	81.55122	829.02954	-651.93689	140.59253	811.11646	-746.84320	96.51648	712.93829	-738.93530	116.98387	598.06854	-710.54248	224.46860	558.32318	-756.77039	116.67552	530.64215	-677.36591	166.64963	528.09839	-755.65857	108.29552	478.82419	-694.56665	141.30498	210.08562	-609.28284	87.95847	162.44814	-560.84900	69.17233	160.32025	-482.89706	119.30572	157.19365	-532.54126	165.57483	166.25175	-649.95056	219.72307	224.81407	-600.64636	198.66437	175.20522	-726.92377	207.34149	167.96722	-740.06586	438.21439	850.70978	-651.49707	388.66809	817.70746	-742.62122	430.19876	733.89313	-733.22742	412.29092	598.40320	-705.53149	310.99918	564.84180	-740.80469	416.19876	551.99658	-680.09283	359.92651	537.19861	-781.04901	420.48166	480.36902	-678.32391	416.01276	213.44366	-573.56592	457.84824	163.36336	-534.40601	467.08853	156.79037	-473.89282	413.71255	163.92703	-521.20160	377.11801	177.59311	-647.05103	324.55518	211.37253	-593.05670	341.42929	172.19313	-729.65918	345.73178	160.94579	-443.93707	448.70038	146.56075	-450.30420	74.93896	143.30820	-806.49261	82.67184	142.00195	-798.81525	457.49634	144.95195	
197	3.920	-447.43860	244.19205	1715.21667	-481.09781	74.09699	1434.19397	-459.94873	421.91333	1435.80481	-512.64069	251.24226	1240.41260	-669.55127	130.09726	1016.65686	-650.49878	356.42114	1022.12708	-860.60095	251.06081	1068.96191	-740.05994	81.66999	829.58832	-648.19019	140.34625	811.32440	-743.88202	96.69722	713.59442	-736.59210	117.07672	598.54205	-708.00568	224.52432	558.47394	-754.73187	116.90357	531.21259	-675.21814	166.76270	527.96222	-753.95935	108.48552	479.37970	-694.44830	141.40404	210.12814	-609.31537	87.92455	162.42281	-560.86163	69.17542	160.32945	-482.83499	119.24878	157.16844	-532.53723	165.49779	166.31042	-649.69196	219.72079	224.68326	-600.58661	198.59218	175.14284	-726.85419	207.40697	167.98811	-736.19391	438.15714	851.30957	-647.68463	388.50473	817.81232	-739.30975	429.88809	734.52008	-730.69055	412.19821	598.93146	-703.01196	310.87192	565.33215	-738.57056	416.10052	552.49127	-677.85571	359.86484	537.51031	-779.23804	420.20380	481.09302	-678.07758	415.80588	213.37085	-573.56830	457.83249	163.43367	-534.44122	467.10052	156.91626	-473.87396	413.72397	163.91037	-521.13727	377.10706	177.67818	-646.91602	324.47003	211.29968	-593.35333	341.79547	171.84950	-729.71820	345.70767	160.88918	-443.92599	448.66266	146.56908	-450.27515	74.98531	143.30684	-806.50427	82.71204	141.94870	-798.79822	457.50415	144.95050	
